<svg width="22" height="22" viewBox="0 0 22 22" fill="none" xmlns="http://www.w3.org/2000/svg">
<g id="ant-design:star-filled">
<path id="Vector" d="M18.9977 7.68743L13.7239 6.92098L11.3664 2.14158C11.302 2.01072 11.1961 1.90479 11.0653 1.8404C10.7371 1.67839 10.3383 1.8134 10.1742 2.14158L7.81668 6.92098L2.54293 7.68743C2.39754 7.7082 2.2646 7.77674 2.16283 7.88059C2.03978 8.00706 1.97198 8.1772 1.97432 8.35364C1.97665 8.53007 2.04894 8.69836 2.17529 8.82152L5.99091 12.5416L5.08945 17.7946C5.06831 17.9168 5.08183 18.0424 5.12848 18.1573C5.17514 18.2722 5.25305 18.3718 5.35339 18.4446C5.45372 18.5175 5.57247 18.5608 5.69617 18.5696C5.81987 18.5785 5.94356 18.5525 6.05322 18.4946L10.7703 16.0145L15.4874 18.4946C15.6162 18.5631 15.7657 18.5859 15.909 18.561C16.2705 18.4987 16.5135 18.156 16.4512 17.7946L15.5497 12.5416L19.3653 8.82152C19.4692 8.71974 19.5377 8.58681 19.5585 8.44141C19.6146 8.07792 19.3612 7.74143 18.9977 7.68743Z" fill="#FFCB45"/>
</g>
</svg>
