<svg width="22" height="24" viewBox="0 0 22 24" fill="none" xmlns="http://www.w3.org/2000/svg">
<g id="Group">
<path id="Vector" d="M1.46795 0.875C1.10842 0.875 0.763611 1.01354 0.509384 1.26014C0.255158 1.50675 0.112335 1.84122 0.112335 2.18997C0.112335 2.53872 0.255158 2.87318 0.509384 3.11979C0.763611 3.36639 1.10842 3.50493 1.46795 3.50493H3.12179L3.53525 5.11182C3.53936 5.13032 3.54388 5.14874 3.54881 5.16705L5.38973 12.3073L4.17917 13.4803C2.4711 15.1371 3.6803 17.9696 6.096 17.9696H17.7353C18.0948 17.9696 18.4396 17.831 18.6938 17.5844C18.9481 17.3378 19.0909 17.0033 19.0909 16.6546C19.0909 16.3058 18.9481 15.9714 18.6938 15.7248C18.4396 15.4782 18.0948 15.3396 17.7353 15.3396H6.096L7.45161 14.0247H16.3797C16.6313 14.0245 16.878 13.9564 17.0921 13.828C17.3061 13.6996 17.4791 13.5159 17.5916 13.2975L21.6584 5.40769C21.7617 5.20726 21.8104 4.98456 21.8 4.76073C21.7896 4.5369 21.7204 4.31936 21.599 4.12874C21.4776 3.93813 21.308 3.78077 21.1063 3.6716C20.9046 3.56242 20.6775 3.50505 20.4465 3.50493H5.91435L5.49411 1.87043C5.42067 1.58607 5.25139 1.33367 5.01315 1.15332C4.77491 0.972968 4.48137 0.875008 4.17917 0.875H1.46795Z" fill="#1D1D1D"/>
<path id="Vector_2" d="M19.0908 21.257C19.0908 21.7801 18.8766 22.2818 18.4953 22.6517C18.1139 23.0216 17.5967 23.2294 17.0574 23.2294C16.5181 23.2294 16.0009 23.0216 15.6196 22.6517C15.2383 22.2818 15.024 21.7801 15.024 21.257C15.024 20.7339 15.2383 20.2322 15.6196 19.8623C16.0009 19.4924 16.5181 19.2845 17.0574 19.2845C17.5967 19.2845 18.1139 19.4924 18.4953 19.8623C18.8766 20.2322 19.0908 20.7339 19.0908 21.257Z" fill="#1D1D1D"/>
<path id="Vector_3" d="M6.21252 23.2294C6.75182 23.2294 7.26903 23.0216 7.65037 22.6517C8.03171 22.2818 8.24594 21.7801 8.24594 21.257C8.24594 20.7339 8.03171 20.2322 7.65037 19.8623C7.26903 19.4924 6.75182 19.2845 6.21252 19.2845C5.67323 19.2845 5.15602 19.4924 4.77468 19.8623C4.39334 20.2322 4.17911 20.7339 4.17911 21.257C4.17911 21.7801 4.39334 22.2818 4.77468 22.6517C5.15602 23.0216 5.67323 23.2294 6.21252 23.2294Z" fill="#1D1D1D"/>
</g>
</svg>
