<svg width="15" height="17" viewBox="0 0 15 17" fill="none" xmlns="http://www.w3.org/2000/svg">
<g id="clarity:sign-in-line">
<path id="Vector" d="M13.7976 0.954834H5.51332C5.23868 0.954834 4.97529 1.07527 4.78108 1.28965C4.58688 1.50402 4.47778 1.79478 4.47778 2.09796H13.7976V15.8154H5.51332V10.2141H4.47778V15.8154C4.47778 16.1186 4.58688 16.4094 4.78108 16.6238C4.97529 16.8381 5.23868 16.9586 5.51332 16.9586H13.7976C14.0722 16.9586 14.3356 16.8381 14.5298 16.6238C14.724 16.4094 14.8331 16.1186 14.8331 15.8154V2.09796C14.8331 1.79478 14.724 1.50402 14.5298 1.28965C14.3356 1.07527 14.0722 0.954834 13.7976 0.954834Z" fill="#1D1D1D"/>
<path id="Vector_2" d="M7.79897 11.1628C7.73776 11.2182 7.68805 11.2865 7.65295 11.3633C7.61786 11.4401 7.59813 11.5237 7.59502 11.6089C7.59191 11.6941 7.60548 11.7791 7.63488 11.8585C7.66427 11.9379 7.70886 12.0101 7.76585 12.0704C7.82283 12.1307 7.89098 12.1779 7.96601 12.209C8.04105 12.2401 8.12135 12.2545 8.20187 12.2512C8.2824 12.2479 8.36142 12.227 8.43396 12.1899C8.5065 12.1527 8.57101 12.1001 8.62343 12.0353L12.0089 8.45229L8.62927 4.86926C8.51742 4.76788 8.37353 4.7149 8.22637 4.72092C8.07921 4.72694 7.93962 4.7915 7.83548 4.90171C7.73135 5.01192 7.67034 5.15966 7.66466 5.3154C7.65897 5.47115 7.70903 5.62343 7.80482 5.74181L9.77532 7.78395H1.29691C1.14183 7.78395 0.993105 7.84915 0.883449 7.96521C0.773793 8.08126 0.712189 8.23866 0.712189 8.40278C0.712189 8.56691 0.773793 8.72431 0.883449 8.84036C0.993105 8.95642 1.14183 9.02162 1.29691 9.02162H9.77532L7.79897 11.1628Z" fill="#1D1D1D"/>
</g>
</svg>
