<svg width="45" height="45" viewBox="0 0 45 45" fill="none" xmlns="http://www.w3.org/2000/svg">
<g id="food 2">
<g id="Group">
<path id="Vector" d="M18.6262 10.4419C19.0818 10.4419 19.5189 10.2621 19.8425 9.94158C20.1662 9.62103 20.3502 9.18567 20.3546 8.73017C20.359 8.27437 20.1833 7.83527 19.8655 7.50846C19.5478 7.18165 19.1138 6.99359 18.658 6.98523M18.4769 13.882C18.0214 13.882 17.5843 13.7022 17.2606 13.3817C16.937 13.0611 16.7529 12.6258 16.7486 12.1703C16.7441 11.7145 16.9199 11.2754 17.2376 10.9486C17.5554 10.6217 17.9894 10.4337 18.4451 10.4253M18.6262 17.3387C19.0818 17.3387 19.5189 17.1589 19.8425 16.8384C20.1662 16.5178 20.3502 16.0825 20.3546 15.627C20.359 15.1712 20.1833 14.7321 19.8655 14.4052C19.5478 14.0784 19.1138 13.8904 18.658 13.882M25.5396 10.4419C25.9951 10.4419 26.4323 10.2621 26.7559 9.94158C27.0796 9.62103 27.2636 9.18567 27.268 8.73017C27.2724 8.27437 27.0966 7.83527 26.7789 7.50846C26.4611 7.18165 26.0272 6.99359 25.5714 6.98523M25.3903 13.882C24.9348 13.882 24.4976 13.7022 24.174 13.3817C23.8503 13.0611 23.6663 12.6258 23.6619 12.1703C23.6575 11.7145 23.8333 11.2754 24.151 10.9486C24.4688 10.6217 24.9027 10.4337 25.3585 10.4253M25.5396 17.3387C25.9951 17.3387 26.4323 17.1589 26.7559 16.8384C27.0796 16.5178 27.2636 16.0825 27.268 15.627C27.2724 15.1712 27.0966 14.7321 26.7789 14.4052C26.4611 14.0784 26.0272 13.8904 25.5714 13.882M12.248 10.4419C12.7035 10.4419 13.1406 10.2621 13.4643 9.94158C13.7879 9.62103 13.9719 9.18567 13.9763 8.73017C13.9808 8.27461 13.8052 7.83571 13.4877 7.50894C13.1703 7.18217 12.7366 6.99395 12.2811 6.98523M12.1 13.882C11.6445 13.882 11.2074 13.7022 10.8837 13.3817C10.5601 13.0611 10.376 12.6258 10.3717 12.1703C10.3672 11.7147 10.5428 11.2758 10.8602 10.949C11.1777 10.6223 11.6113 10.4341 12.0668 10.4253M12.248 17.3387C12.7035 17.3387 13.1406 17.1589 13.4643 16.8384C13.7879 16.5178 13.9719 16.0825 13.9763 15.627C13.9808 15.1714 13.8052 14.7325 13.4877 14.4057C13.1703 14.079 12.7366 13.8907 12.2811 13.882" stroke="#FAA41A" stroke-width="0.941396" stroke-linecap="round" stroke-linejoin="round"/>
<path id="Vector_2" d="M12.9212 37.7442H25.3625V33.6294C22.712 34.7991 21.1675 34.9817 19.0188 35.0259C16.3323 35.0812 14.5113 34.6166 12.9212 34.2184V37.7442Z" stroke="#383747" stroke-width="0.941396" stroke-linecap="round" stroke-linejoin="round"/>
<path id="Vector_3" d="M34.8007 22.8473C32.4778 31.5222 23.5997 36.6699 14.9248 34.3456C12.1718 33.6106 9.66126 32.1626 7.64641 30.1478C5.63156 28.1329 4.1836 25.6224 3.44855 22.8694L34.8007 22.8473Z" fill="#FAA41A" stroke="#383747" stroke-width="0.941396" stroke-linecap="round" stroke-linejoin="round"/>
<path id="Vector_4" d="M3.44028 20.0751H34.8063V22.922H3.44028V20.0751Z" stroke="#383747" stroke-width="0.941396" stroke-linecap="round" stroke-linejoin="round"/>
<path id="Vector_5" d="M23.7006 20.0667C34.4855 20.4925 31.7741 12.8076 39.7452 12.1135C40.5333 12.0444 40.9481 12.0292 42.0543 12.0997L42.0957 12.0859C40.72 11.2673 38.1842 9.88189 36.0673 10.4695C34.9846 10.7709 33.2978 11.9352 32.1681 14.1544C29.324 20.3819 26.5545 20.0542 24.3007 20.0653L23.7006 20.0667Z" stroke="#383747" stroke-width="0.941396" stroke-linecap="round" stroke-linejoin="round"/>
<path id="Vector_6" d="M30.3375 25.2905C29.3586 28.2771 26.7384 30.3511 23.6965 30.9153" stroke="white" stroke-width="0.941396" stroke-linecap="round" stroke-linejoin="round"/>
</g>
</g>
</svg>