<svg width="21" height="22" viewBox="0 0 21 22" fill="none" xmlns="http://www.w3.org/2000/svg">
<g id="Group">
<path id="Vector" fill-rule="evenodd" clip-rule="evenodd" d="M6.29371 0.637694C7.39796 0.586858 7.75005 0.575562 10.5629 0.575562C13.3758 0.575562 13.7279 0.5878 14.8312 0.637694C15.9345 0.687588 16.6877 0.863629 17.3466 1.11875C18.0367 1.37951 18.6627 1.78714 19.1805 2.31432C19.7077 2.83115 20.1143 3.45623 20.3742 4.14722C20.6302 4.8062 20.8053 5.55931 20.8562 6.66075C20.907 7.76689 20.9183 8.11897 20.9183 10.9309C20.9183 13.7438 20.9061 14.0959 20.8562 15.2002C20.8063 16.3016 20.6302 17.0547 20.3742 17.7137C20.1143 18.4048 19.707 19.0309 19.1805 19.5485C18.6627 20.0756 18.0367 20.4823 17.3466 20.7422C16.6877 20.9982 15.9345 21.1733 14.8331 21.2241C13.7279 21.275 13.3758 21.2863 10.5629 21.2863C7.75005 21.2863 7.39796 21.274 6.29371 21.2241C5.19227 21.1743 4.43916 20.9982 3.78018 20.7422C3.08912 20.4823 2.463 20.0749 1.9454 19.5485C1.41857 19.0313 1.01089 18.4055 0.750766 17.7146C0.495648 17.0556 0.320548 16.3025 0.269713 15.2011C0.218877 14.095 0.207581 13.7429 0.207581 10.9309C0.207581 8.11803 0.219819 7.76595 0.269713 6.66263C0.319607 5.55931 0.495648 4.8062 0.750766 4.14722C1.01127 3.45631 1.41927 2.8305 1.94634 2.31338C2.4632 1.78667 3.0887 1.37899 3.77924 1.11875C4.43822 0.863629 5.19133 0.688529 6.29277 0.637694H6.29371ZM14.7474 2.50166C13.6554 2.45176 13.3278 2.44141 10.5629 2.44141C7.79806 2.44141 7.47045 2.45176 6.37843 2.50166C5.36831 2.54779 4.82042 2.7163 4.45516 2.85845C3.97222 3.04673 3.62673 3.26984 3.26429 3.63228C2.92073 3.96652 2.65632 4.37342 2.49047 4.82314C2.34832 5.1884 2.17981 5.7363 2.13368 6.74641C2.08378 7.83843 2.07343 8.16604 2.07343 10.9309C2.07343 13.6958 2.08378 14.0234 2.13368 15.1154C2.17981 16.1255 2.34832 16.6734 2.49047 17.0387C2.65615 17.4877 2.92068 17.8954 3.26429 18.2296C3.59849 18.5732 4.00611 18.8377 4.45516 19.0034C4.82042 19.1455 5.36831 19.3141 6.37843 19.3602C7.47045 19.4101 7.79712 19.4204 10.5629 19.4204C13.3288 19.4204 13.6554 19.4101 14.7474 19.3602C15.7576 19.3141 16.3055 19.1455 16.6707 19.0034C17.1537 18.8151 17.4991 18.592 17.8616 18.2296C18.2052 17.8954 18.4697 17.4877 18.6354 17.0387C18.7776 16.6734 18.9461 16.1255 18.9922 15.1154C19.0421 14.0234 19.0524 13.6958 19.0524 10.9309C19.0524 8.16604 19.0421 7.83843 18.9922 6.74641C18.9461 5.7363 18.7776 5.1884 18.6354 4.82314C18.4471 4.3402 18.224 3.99471 17.8616 3.63228C17.5273 3.28873 17.1204 3.02433 16.6707 2.85845C16.3055 2.7163 15.7576 2.54779 14.7474 2.50166ZM9.24028 14.1232C9.97895 14.4307 10.8015 14.4722 11.5673 14.2406C12.3332 14.009 12.9949 13.5187 13.4395 12.8535C13.884 12.1882 14.0838 11.3893 14.0047 10.5931C13.9256 9.79686 13.5726 9.05281 13.0059 8.488C12.6446 8.12695 12.2078 7.85049 11.7268 7.67853C11.2459 7.50657 10.7328 7.44339 10.2245 7.49352C9.71621 7.54365 9.22536 7.70586 8.78728 7.96847C8.3492 8.23107 7.9748 8.58754 7.69102 9.01221C7.40725 9.43688 7.22116 9.91919 7.14616 10.4244C7.07115 10.9296 7.1091 11.4452 7.25726 11.934C7.40543 12.4228 7.66013 12.8727 8.00302 13.2512C8.34591 13.6297 8.76847 13.9276 9.24028 14.1232ZM6.79924 7.16722C7.29349 6.67296 7.88026 6.2809 8.52604 6.01341C9.17181 5.74592 9.86395 5.60824 10.5629 5.60824C11.2619 5.60824 11.9541 5.74592 12.5998 6.01341C13.2456 6.2809 13.8324 6.67296 14.3266 7.16722C14.8209 7.66147 15.213 8.24824 15.4805 8.89402C15.7479 9.5398 15.8856 10.2319 15.8856 10.9309C15.8856 11.6299 15.7479 12.322 15.4805 12.9678C15.213 13.6136 14.8209 14.2004 14.3266 14.6946C13.3284 15.6928 11.9746 16.2536 10.5629 16.2536C9.15128 16.2536 7.79743 15.6928 6.79924 14.6946C5.80104 13.6964 5.24026 12.3426 5.24026 10.9309C5.24026 9.51926 5.80104 8.16541 6.79924 7.16722ZM17.0661 6.40092C17.1886 6.28538 17.2866 6.14644 17.3545 5.99233C17.4223 5.83822 17.4585 5.67206 17.4609 5.5037C17.4634 5.33535 17.432 5.16821 17.3687 5.01218C17.3054 4.85616 17.2115 4.71442 17.0924 4.59536C16.9734 4.4763 16.8316 4.38234 16.6756 4.31904C16.5196 4.25574 16.3524 4.22439 16.1841 4.22684C16.0157 4.2293 15.8496 4.26551 15.6955 4.33333C15.5413 4.40115 15.4024 4.4992 15.2869 4.62168C15.0622 4.85988 14.9391 5.17628 14.9439 5.5037C14.9487 5.83113 15.0809 6.14381 15.3124 6.37536C15.544 6.6069 15.8567 6.7391 16.1841 6.74387C16.5115 6.74864 16.8279 6.62562 17.0661 6.40092Z" fill="#1D1D1D"/>
</g>
</svg>
