<svg width="23" height="18" viewBox="0 0 23 18" fill="none" xmlns="http://www.w3.org/2000/svg">
<g id="Group">
<path id="Vector" d="M22.1046 2.30364C21.3185 2.65195 20.4741 2.8873 19.5864 2.99368C20.5023 2.44559 21.1876 1.58297 21.5143 0.56676C20.6538 1.07793 19.7119 1.43774 18.7297 1.63054C18.0692 0.925305 17.1943 0.457865 16.2409 0.300791C15.2876 0.143717 14.309 0.305797 13.4571 0.761867C12.6053 1.21794 11.9279 1.94248 11.53 2.82301C11.1322 3.70353 11.0362 4.69078 11.2569 5.63147C9.51312 5.54392 7.80725 5.09069 6.24999 4.30119C4.69273 3.51169 3.31888 2.40358 2.2176 1.04875C1.84104 1.69832 1.62452 2.45144 1.62452 3.2535C1.6241 3.97555 1.80191 4.68654 2.14217 5.32338C2.48243 5.96023 2.97463 6.50324 3.57509 6.90424C2.87872 6.88208 2.19771 6.69392 1.58874 6.3554V6.41189C1.58867 7.42459 1.93897 8.40612 2.58021 9.18995C3.22144 9.97377 4.11411 10.5116 5.10674 10.7122C4.46074 10.887 3.78345 10.9128 3.12604 10.7875C3.40611 11.6589 3.95164 12.4208 4.68628 12.9668C5.42092 13.5127 6.30788 13.8152 7.223 13.832C5.66954 15.0515 3.75102 15.713 1.77608 15.7101C1.42624 15.7102 1.0767 15.6897 0.729248 15.6489C2.73393 16.9378 5.06752 17.6219 7.45082 17.6192C15.5186 17.6192 19.929 10.9372 19.929 5.14194C19.929 4.95367 19.9243 4.7635 19.9158 4.57522C20.7737 3.95482 21.5142 3.18657 22.1027 2.30646L22.1046 2.30364Z" fill="#1D1D1D"/>
</g>
</svg>
